<svg width="66" height="56" viewBox="0 0 66 56" fill="none" xmlns="http://www.w3.org/2000/svg">
<g clip-path="url(#clip0_934_31418)">
<path d="M65.7336 28.8608C58.3345 40.0095 46.1308 46.6665 33.0905 46.6665C20.0503 46.6665 7.84652 40.0095 0.447458 28.8608C0.0936857 28.3265 0.0936857 27.6755 0.447458 27.1412C7.84652 15.9902 20.0503 9.33318 33.0905 9.33318C46.1308 9.33318 58.3345 15.9902 65.7336 27.1388C66.0874 27.6732 66.0874 28.3265 65.7336 28.8608ZM33.0905 18.6665C27.0407 18.6665 22.1208 22.8525 22.1208 27.9998C22.1208 33.1472 27.0407 37.3332 33.0905 37.3332C39.1403 37.3332 44.0602 33.1472 44.0602 27.9998C44.0602 22.8525 39.1403 18.6665 33.0905 18.6665Z" fill="white"/>
<path d="M63.2575 37.3333C61.7437 37.3333 60.5151 38.3787 60.5151 39.6667V49C60.5151 50.2857 59.2837 51.3333 57.7727 51.3333H46.803C45.2892 51.3333 44.0605 52.3787 44.0605 53.6667C44.0605 54.9547 45.2892 56 46.803 56H57.7727C62.3086 56 65.9999 52.8593 65.9999 49V39.6667C65.9999 38.3787 64.7713 37.3333 63.2575 37.3333Z" fill="white"/>
<path d="M2.92407 37.3333C1.41025 37.3333 0.181641 38.3787 0.181641 39.6667V49C0.181641 52.8593 3.87294 56 8.40891 56H19.3786C20.8924 56 22.121 54.9547 22.121 53.6667C22.121 52.3787 20.8924 51.3333 19.3786 51.3333H8.40891C6.89784 51.3333 5.66649 50.2857 5.66649 49V39.6667C5.66649 38.3787 4.43788 37.3333 2.92407 37.3333Z" fill="white"/>
<path d="M57.7727 -0.000167847H46.803C45.2892 -0.000167847 44.0605 1.04517 44.0605 2.33317C44.0605 3.62117 45.2892 4.6665 46.803 4.6665H57.7727C59.2837 4.6665 60.5151 5.71417 60.5151 6.99983V16.3332C60.5151 17.6212 61.7437 18.6665 63.2575 18.6665C64.7713 18.6665 65.9999 17.6212 65.9999 16.3332V6.99983C65.9999 3.1405 62.3086 -0.000167847 57.7727 -0.000167847Z" fill="white"/>
<path d="M19.3786 -0.000167847H8.40891C3.87294 -0.000167847 0.181641 3.1405 0.181641 6.99983V16.3332C0.181641 17.6212 1.41025 18.6665 2.92407 18.6665C4.43788 18.6665 5.66649 17.6212 5.66649 16.3332V6.99983C5.66649 5.71417 6.89784 4.6665 8.40891 4.6665H19.3786C20.8924 4.6665 22.121 3.62117 22.121 2.33317C22.121 1.04517 20.8924 -0.000167847 19.3786 -0.000167847Z" fill="white"/>
</g>
<defs>
<clipPath id="clip0_934_31418">
<rect width="65.8182" height="56" fill="white" transform="matrix(1 0 0 -1 0.181641 56)"/>
</clipPath>
</defs>
</svg>
