<svg width="36" height="35" viewBox="0 0 36 35" fill="none" xmlns="http://www.w3.org/2000/svg">
<g id="Icons/fill/system/thumb-up-fill" clip-path="url(#clip0_941_30155)">
<g id="Group">
<path id="Vector" d="M3.41683 13.125H7.79183V30.625H3.41683C3.03006 30.625 2.65912 30.4714 2.38563 30.1979C2.11214 29.9244 1.9585 29.5534 1.9585 29.1667V14.5833C1.9585 14.1966 2.11214 13.8256 2.38563 13.5521C2.65912 13.2787 3.03006 13.125 3.41683 13.125ZM11.1358 11.2394L20.4691 1.90605C20.5932 1.78165 20.758 1.70621 20.9332 1.69362C21.1084 1.68103 21.2823 1.73212 21.4229 1.83751L22.6668 2.77084C23.0123 3.0302 23.2733 3.38605 23.4168 3.79351C23.5603 4.20097 23.58 4.64181 23.4733 5.06043L21.7918 11.6667H31.1252C31.8987 11.6667 32.6406 11.974 33.1876 12.5209C33.7345 13.0679 34.0418 13.8098 34.0418 14.5833V17.6517C34.0422 18.0328 33.9679 18.4104 33.8231 18.7629L29.3095 29.7223C29.1994 29.9895 29.0124 30.2179 28.7723 30.3787C28.5321 30.5394 28.2496 30.6251 27.9606 30.625H12.1668C11.7801 30.625 11.4091 30.4714 11.1356 30.1979C10.8621 29.9244 10.7085 29.5534 10.7085 29.1667V12.2704C10.7086 11.8837 10.8623 11.5128 11.1358 11.2394Z" fill="white"/>
</g>
</g>
<defs>
<clipPath id="clip0_941_30155">
<rect width="35" height="35" fill="white" transform="translate(0.5)"/>
</clipPath>
</defs>
</svg>
