<svg width="35" height="50" viewBox="0 0 35 50" fill="none" xmlns="http://www.w3.org/2000/svg">
<g id="Group">
<path id="Vector" d="M29.9795 0H5.25405C2.88773 0 0.977539 1.63253 0.977539 3.64223V46.3614C0.977539 48.3693 2.88773 50 5.25405 50H29.9795C32.3415 50 34.256 48.3693 34.256 46.3614V3.64223C34.256 1.63253 32.3415 0 29.9795 0ZM11.5157 2.21194H23.7221C24.0305 2.21194 24.281 2.60367 24.281 3.08833C24.281 3.57299 24.0305 3.96655 23.7221 3.96655H11.5157C11.2052 3.96655 10.9589 3.57299 10.9589 3.08833C10.9589 2.60367 11.2052 2.21194 11.5157 2.21194ZM17.6189 46.4051C16.1134 46.4051 14.8885 45.3629 14.8885 44.0802C14.8885 42.7975 16.1134 41.759 17.6189 41.759C19.1201 41.759 20.345 42.7975 20.345 44.0802C20.345 45.3629 19.1201 46.4051 17.6189 46.4051ZM31.0523 38.4447H4.18332V6.14569H31.0523V38.4447Z" fill="white"/>
</g>
</svg>
