<svg width="47" height="55" viewBox="0 0 47 55" fill="none" xmlns="http://www.w3.org/2000/svg">
<path id="Vector" d="M8.69236 41.6005C8.69236 43.0368 9.86155 44.2092 11.3001 44.2092H14.2812V51.5995C14.2812 53.4716 15.7809 55 17.6235 55C19.4721 55 20.9657 53.4777 20.9657 51.5995V44.203H26.1689V51.5933C26.1689 53.4655 27.6687 54.9939 29.5112 54.9939C31.3598 54.9939 32.8535 53.4716 32.8535 51.5933V44.203H35.8346C37.2731 44.203 38.4423 43.0307 38.4423 41.5943V17.3365H8.69236V41.6005ZM30.5518 4.76563L33.3003 0.775851C33.4595 0.542602 33.4227 0.229558 33.2085 0.076105C32.9943 -0.0712099 32.6882 0.00244794 32.529 0.235696L29.6765 4.38507C27.7972 3.64235 25.7037 3.2311 23.5061 3.2311C21.3085 3.2311 19.215 3.64235 17.3358 4.38507L14.4832 0.241835C14.324 0.00858597 14.018 -0.0712095 13.8037 0.0822435C13.5895 0.229558 13.5527 0.536464 13.7119 0.781989L16.4604 4.77177C12.0897 6.80962 9.02904 10.6705 8.63727 15.182H38.3872C37.9832 10.6644 34.9164 6.80348 30.5518 4.76563ZM17.2256 11.0572C16.8999 11.0572 16.5815 10.9604 16.3107 10.7789C16.04 10.5975 15.8289 10.3396 15.7043 10.0379C15.5796 9.73621 15.547 9.40422 15.6106 9.08392C15.6741 8.76363 15.8309 8.46942 16.0612 8.23851C16.2915 8.00759 16.5849 7.85033 16.9043 7.78662C17.2237 7.72291 17.5548 7.75561 17.8557 7.88058C18.1566 8.00555 18.4138 8.21718 18.5947 8.48871C18.7757 8.76025 18.8722 9.07948 18.8722 9.40605C18.8711 9.84361 18.6972 10.2629 18.3887 10.5723C18.0801 10.8817 17.6619 11.0561 17.2256 11.0572ZM29.9825 11.0572C29.6569 11.0572 29.3385 10.9604 29.0677 10.7789C28.7969 10.5975 28.5859 10.3396 28.4612 10.0379C28.3366 9.73621 28.304 9.40422 28.3675 9.08392C28.4311 8.76363 28.5879 8.46942 28.8182 8.23851C29.0485 8.00759 29.3419 7.85033 29.6613 7.78662C29.9807 7.72291 30.3118 7.75561 30.6127 7.88058C30.9136 8.00555 31.1707 8.21718 31.3517 8.48871C31.5326 8.76025 31.6292 9.07948 31.6292 9.40605C31.6281 9.84361 31.4542 10.2629 31.1456 10.5723C30.8371 10.8817 30.4189 11.0561 29.9825 11.0572ZM43.6577 17.2383C41.809 17.2383 40.3154 18.7605 40.3154 20.6388V33.9217C40.3154 35.7938 41.8152 37.3222 43.6577 37.3222C45.5064 37.3222 47 35.8 47 33.9217V20.6327C47.0061 18.7544 45.5125 17.2383 43.6577 17.2383ZM3.34227 17.2383C1.49362 17.2383 0 18.7605 0 20.6388V33.9217C0 35.7938 1.49974 37.3222 3.34227 37.3222C5.19093 37.3222 6.68455 35.8 6.68455 33.9217V20.6327C6.68455 18.7544 5.18481 17.2383 3.34227 17.2383Z" fill="white"/>
</svg>
