<svg width="47" height="44" viewBox="0 0 47 44" fill="none" xmlns="http://www.w3.org/2000/svg">
<path id="Vector" d="M46.4119 26.1708C46.9798 26.586 47.1639 27.3458 46.8427 27.9646C41.6728 38.093 37.5486 43.1376 33.7808 43.1376C32.0262 43.1376 30.3029 42.5815 28.6226 41.5005C27.4167 40.7262 26.0202 40.3004 24.5874 40.2699C23.1546 40.2395 21.7412 40.6058 20.5035 41.3281C18.4669 42.5227 16.5281 43.1376 14.6873 43.1376C9.1453 43.1376 0 26.4254 0 17.2566C0 7.46507 5.24435 0 13.2186 0C16.9707 0 20.2097 0.540494 22.9318 1.64106C24.0833 2.10322 25.3875 2.07189 26.5116 1.54315C28.7206 0.501327 31.6345 0 35.2456 0C39.6597 0 43.5097 2.15414 46.7057 6.32534C46.8213 6.47576 46.9055 6.64785 46.9534 6.83142C47.0013 7.01498 47.0118 7.20629 46.9845 7.39402C46.9571 7.58174 46.8923 7.76206 46.7939 7.92429C46.6956 8.08652 46.5657 8.22736 46.4119 8.33848C42.8439 10.9626 41.1245 13.904 41.1245 17.2566C41.1245 20.6053 42.8439 23.5506 46.4119 26.1708Z" fill="white"/>
</svg>
