<svg width="34" height="56" viewBox="0 0 34 56" fill="none" xmlns="http://www.w3.org/2000/svg">
<g id="Group 1000004722">
<path id="Vector" d="M33.5415 38.5529C33.4897 50.6939 20.9008 58.5611 9.87799 53.409C-0.100417 48.6215 -2.65439 35.8051 4.65074 27.6053L7.71481 24.3156L8.09177 24.6849L14.2084 30.673L11.8452 33.2098C6.90441 38.0518 10.4861 46.2568 17.4459 45.9442C24.3539 45.4282 26.8802 36.9749 21.6363 32.7597C19.5325 30.7 16.6217 27.8524 14.5225 25.7973L12.4723 23.7903C7.20874 17.34 9.06009 8.06269 15.8966 3.92836C15.063 6.36464 14.9717 8.9917 15.6343 11.4794C16.2969 13.9671 17.6838 16.2046 19.6206 17.9105L29.1794 27.4189C31.9896 30.4522 33.5472 34.4278 33.5415 38.5529Z" fill="white"/>
<path id="Vector_2" d="M20.7216 38.5459C20.7349 40.8556 18.574 42.6418 16.2575 42.1745C13.6263 41.6492 12.4632 38.6193 13.9047 36.4896L14.7013 35.6335L16.8869 33.2871L19.9418 36.2752C20.449 36.9244 20.7235 37.7237 20.7216 38.5459Z" fill="white"/>
<path id="Vector_3" d="M19.6777 2.08253H22.2012L22.2398 2.23105C21.4132 2.66226 21.1498 3.47708 20.7988 4.23284C20.7135 4.13536 20.634 4.03272 20.5429 3.94098C20.2847 3.67548 20.0172 3.41229 19.7538 3.15196L20.0801 2.87672L19.7711 2.83142C19.7408 2.58217 19.7096 2.33254 19.6777 2.08253Z" fill="white"/>
<path id="Vector_4" d="M20.559 5.12391C20.3942 5.45764 20.2297 5.79156 20.0656 6.12567L18.0103 4.73972L18.7596 3.92261C18.8898 4.0223 19.0131 4.13074 19.1284 4.24716C19.5052 4.67658 20.004 4.98228 20.559 5.12391Z" fill="white"/>
<path id="Vector_5" d="M20.5591 5.12385C20.0032 4.98271 19.5036 4.67697 19.1262 4.24709C19.0108 4.13067 18.8876 4.02224 18.7573 3.92254L19.755 3.15187C20.0185 3.4122 20.2847 3.6754 20.5441 3.94089C20.6352 4.03264 20.717 4.13528 20.8 4.23276C20.7193 4.52864 20.639 4.82567 20.5591 5.12385Z" fill="white"/>
<path id="Vector_6" d="M18.0101 4.73969L20.0655 6.12563L19.3099 6.8424C19.2442 6.75008 19.1946 6.63597 19.1099 6.56888C18.6004 6.17093 18.0822 5.78387 17.5669 5.39338L18.0101 4.73969Z" fill="white"/>
<path id="Vector_7" d="M17.5651 5.39362C18.0804 5.78411 18.5986 6.17117 19.1081 6.56912C19.194 6.63621 19.2424 6.75032 19.3081 6.84264L18.3859 7.2102L17.1265 6.20959L17.5651 5.39362Z" fill="white"/>
<path id="Vector_8" d="M17.129 5.12209C16.8529 5.71615 16.5768 6.30963 16.2938 6.91688C15.9768 6.0321 15.9175 5.1542 16.3515 4.28261C16.4979 4.41335 16.6547 4.53376 16.7872 4.67712C16.9086 4.8196 17.0227 4.96812 17.129 5.12209Z" fill="white"/>
<path id="Vector_9" d="M17.1289 5.12215C17.023 4.96819 16.9093 4.81967 16.7883 4.67718C16.6557 4.53382 16.5001 4.4134 16.3525 4.28267C16.6891 3.87669 17.0256 3.47033 17.3618 3.06358L17.8408 4.20468L17.1289 5.12215Z" fill="white"/>
<path id="Vector_10" d="M17.8408 4.20462L17.3618 3.06352L18.5722 2.36166C18.6379 2.70915 18.7038 3.05588 18.7699 3.40184L17.8408 4.20462Z" fill="white"/>
<path id="Vector_11" d="M17.1297 6.20932L18.3879 7.20993C17.9677 7.24491 17.5481 7.29996 17.1274 7.30856C16.8501 7.31429 16.755 7.14227 16.8588 6.88022C16.947 6.65601 17.0398 6.43295 17.1297 6.20932Z" fill="white"/>
<path id="Vector_12" d="M18.7695 3.40196C18.7034 3.05524 18.6375 2.70851 18.5718 2.36179L19.6779 2.08253C19.7094 2.33254 19.7409 2.58217 19.7724 2.83142L18.7695 3.40196Z" fill="white"/>
<path id="Vector_13" d="M10.5283 2.1759C10.2926 1.65122 10.0563 1.12654 9.81592 0.590974C10.594 0.4912 11.4557 0.524458 12.2609 0.985484C12.156 1.20682 12.0517 1.42759 11.948 1.64778L11.4598 1.54973L10.5283 2.1759Z" fill="white"/>
<path id="Vector_14" d="M12.017 2.09351C12.178 2.30682 12.3392 2.51974 12.5006 2.73229C12.4141 2.78963 12.3276 2.85099 12.2406 2.90432C11.8314 3.16694 11.4212 3.42574 11.01 3.68072L10.6538 2.73516L12.017 2.09351Z" fill="white"/>
<path id="Vector_15" d="M11.9478 1.64781C12.0515 1.42762 12.1558 1.20686 12.2607 0.985519L13.4308 1.99989L12.9426 2.77286L11.9478 1.64781Z" fill="white"/>
<path id="Vector_16" d="M12.9443 2.7727C13.1069 2.51467 13.2696 2.25701 13.4325 1.99974C13.9778 2.75321 13.9421 3.53936 13.5812 4.36451C13.3634 3.81976 13.1536 3.29738 12.9443 2.7727Z" fill="white"/>
<path id="Vector_17" d="M12.7859 3.26895C12.9427 3.68525 13.1 4.10155 13.2851 4.59182C12.6055 4.64458 12.0614 4.56774 11.5703 4.22312C11.7098 4.11703 11.8504 4.01325 11.9876 3.90487C12.2551 3.69443 12.5202 3.48112 12.7859 3.26895Z" fill="white"/>
<path id="Vector_18" d="M12.7856 3.2688C12.5199 3.48096 12.2548 3.69427 11.9873 3.90472C11.8501 4.01309 11.7095 4.11688 11.57 4.22296L11.0098 3.6828L12.2386 2.91041C12.3268 2.85307 12.4115 2.79573 12.4986 2.73839L12.7856 3.2688Z" fill="white"/>
<path id="Vector_19" d="M12.0171 2.09348L10.6557 2.7357C10.613 2.54877 10.571 2.36126 10.5283 2.17433L11.4598 1.54816L12.0171 2.09348Z" fill="white"/>
</g>
</svg>
