<svg width="100" height="214" viewBox="0 0 100 214" fill="none" xmlns="http://www.w3.org/2000/svg">
<g id="Layer 3">
<g id="LOGO 1">
<path id="Vector" d="M99.0725 113.814C98.9172 150.17 61.22 173.728 28.2124 158.3C-1.6678 143.964 -9.31562 105.586 12.5595 81.0315L21.7348 71.1806L22.8636 72.2864L41.1797 90.2179L34.1031 97.8143C19.308 112.313 30.0333 136.883 50.8745 135.947C71.5604 134.402 79.1253 109.089 63.4224 96.4663C57.1225 90.2986 48.4063 81.7715 42.1203 75.6175L35.981 69.6077C20.2194 50.2922 25.7632 22.5115 46.2351 10.1313C43.7388 17.4268 43.4655 25.2934 45.4496 32.7429C47.4337 40.1923 51.5866 46.8922 57.3866 52.0007L86.0103 80.4734C94.4253 89.5565 99.0894 101.461 99.0725 113.814Z" fill="white"/>
<path id="Vector_2" d="M60.6834 113.794C60.7231 120.71 54.2524 126.059 47.3157 124.659C39.4366 123.087 35.9536 114.014 40.2703 107.636L42.6556 105.073L49.2005 98.0464L58.3482 106.994C59.8669 108.938 60.6889 111.332 60.6834 113.794Z" fill="white"/>
<path id="Vector_3" d="M57.5576 4.60449H65.114L65.2296 5.04922C62.7545 6.34046 61.9658 8.78044 60.9147 11.0436C60.6592 10.7517 60.421 10.4443 60.1483 10.1696C59.3751 9.37455 58.5742 8.58641 57.7854 7.80685L58.7624 6.98265L57.8372 6.847C57.7463 6.10064 57.6531 5.35314 57.5576 4.60449Z" fill="white"/>
<path id="Vector_4" d="M60.1967 13.7115C59.7031 14.7109 59.2106 15.7108 58.7193 16.7113L52.5645 12.5611L54.8082 10.1143C55.1983 10.4128 55.5673 10.7375 55.9129 11.0861C57.0412 12.372 58.5348 13.2874 60.1967 13.7115Z" fill="white"/>
<path id="Vector_5" d="M60.1967 13.7112C58.5322 13.2886 57.0359 12.373 55.9059 11.0858C55.5604 10.7372 55.1913 10.4124 54.8013 10.1139L57.7889 7.80615C58.5777 8.58571 59.3751 9.37385 60.1518 10.1689C60.4245 10.4436 60.6696 10.751 60.9181 11.0429C60.6765 11.9289 60.436 12.8183 60.1967 13.7112Z" fill="white"/>
<path id="Vector_6" d="M52.5641 12.561L58.7189 16.7112L56.4562 18.8576C56.2594 18.5811 56.111 18.2394 55.8573 18.0385C54.3315 16.8469 52.7798 15.6878 51.2368 14.5185L52.5641 12.561Z" fill="white"/>
<path id="Vector_7" d="M51.2319 14.519C52.775 15.6884 54.3266 16.8474 55.8524 18.0391C56.1095 18.24 56.2545 18.5817 56.4513 18.8581L53.6897 19.9588L49.9185 16.9625L51.2319 14.519Z" fill="white"/>
<path id="Vector_8" d="M49.9255 13.7062C49.0987 15.4851 48.272 17.2623 47.4245 19.0807C46.4753 16.4312 46.2975 13.8024 47.5971 11.1924C48.0355 11.5839 48.505 11.9445 48.902 12.3737C49.2655 12.8004 49.6072 13.2451 49.9255 13.7062Z" fill="white"/>
<path id="Vector_9" d="M49.9255 13.7068C49.6083 13.2458 49.2679 12.8011 48.9054 12.3744C48.5085 11.9451 48.0424 11.5845 47.6006 11.193C48.6086 9.97731 49.616 8.76047 50.6228 7.54248L52.0571 10.9595L49.9255 13.7068Z" fill="white"/>
<path id="Vector_10" d="M52.0568 10.9591L50.6226 7.54214L54.2471 5.44043C54.4439 6.48098 54.6412 7.51925 54.8391 8.55522L52.0568 10.9591Z" fill="white"/>
<path id="Vector_11" d="M49.9268 16.9624L53.6947 19.9587C52.4364 20.0635 51.1799 20.2283 49.9199 20.2541C49.0897 20.2712 48.805 19.7561 49.1156 18.9714C49.3797 18.3 49.6576 17.6321 49.9268 16.9624Z" fill="white"/>
<path id="Vector_12" d="M54.8376 8.5555C54.6397 7.51724 54.4424 6.47898 54.2456 5.44071L57.5578 4.60449C57.6521 5.35314 57.7465 6.10064 57.8408 6.847L54.8376 8.5555Z" fill="white"/>
<path id="Vector_13" d="M30.1592 4.88397C29.4533 3.31284 28.7456 1.74171 28.0259 0.137948C30.356 -0.160824 32.9363 -0.0612334 35.3475 1.3193C35.0334 1.9821 34.721 2.64317 34.4103 3.30253L32.9484 3.00891L30.1592 4.88397Z" fill="white"/>
<path id="Vector_14" d="M34.6176 4.63672C35.0997 5.27547 35.5824 5.91308 36.0657 6.54955C35.8068 6.72126 35.5479 6.90499 35.2873 7.06468C34.0618 7.8511 32.8335 8.62608 31.6023 9.38961L30.5356 6.55814L34.6176 4.63672Z" fill="white"/>
<path id="Vector_15" d="M34.4106 3.30257C34.7213 2.64321 35.0337 1.98213 35.3479 1.31934L38.8516 4.35686L37.3897 6.67149L34.4106 3.30257Z" fill="white"/>
<path id="Vector_16" d="M37.3945 6.67156C37.8813 5.89887 38.3686 5.12733 38.8564 4.35693C40.4892 6.61318 40.3822 8.9673 39.3017 11.4382C38.6493 9.80696 38.0211 8.24269 37.3945 6.67156Z" fill="white"/>
<path id="Vector_17" d="M36.9199 8.15723C37.3893 9.40383 37.8605 10.6504 38.4146 12.1185C36.3796 12.2765 34.7503 12.0464 33.2798 11.0145C33.6975 10.6968 34.1186 10.386 34.5294 10.0615C35.3303 9.4313 36.1242 8.79255 36.9199 8.15723Z" fill="white"/>
<path id="Vector_18" d="M36.9203 8.15666C36.1246 8.79198 35.3307 9.43074 34.5298 10.0609C34.119 10.3854 33.6979 10.6962 33.2802 11.0139L31.6025 9.3964L35.2823 7.08348C35.5464 6.91178 35.8001 6.74007 36.0607 6.56836L36.9203 8.15666Z" fill="white"/>
<path id="Vector_19" d="M34.6174 4.63685L30.5406 6.55999C30.4129 6.00022 30.2869 5.43873 30.1592 4.87896L32.9484 3.00391L34.6174 4.63685Z" fill="white"/>
<path id="Vector_20" d="M29.8607 194.054C29.8469 197.304 31.9318 200.235 35.0662 201.18C35.156 201.207 35.2388 201.231 35.3337 201.255C37.3385 201.782 39.4696 201.527 41.2918 200.543L41.3125 200.532C43.9844 199.19 45.6568 196.398 45.6448 192.794C45.6321 189.286 45.6321 185.781 45.6448 182.278C45.6443 182.016 45.661 181.755 45.6948 181.495C45.9416 179.558 47.1325 178.389 48.9017 178.334C50.9539 178.282 52.3174 179.85 52.3329 182.345C52.3502 185.988 52.3502 189.629 52.3329 193.271C52.3121 195.425 53.1478 197.5 54.6578 199.044C56.1679 200.587 58.23 201.475 60.395 201.513C64.8515 201.661 68.8247 197.907 68.8885 193.42C68.9403 189.778 68.8885 186.136 68.9075 182.493C68.923 179.876 70.1347 178.372 72.1748 178.334C74.2926 178.298 75.5819 179.879 75.5922 182.582C75.6078 186.155 75.5922 189.727 75.5922 193.3C75.6159 195.489 76.5077 197.58 78.0735 199.118C79.6393 200.656 81.7524 201.517 83.9529 201.513C88.4404 201.467 92.1478 197.837 92.1927 193.393C92.2307 189.68 92.1927 185.968 92.2082 182.264C92.2082 179.91 93.5769 178.344 95.5221 178.343C97.4673 178.341 98.8256 179.888 98.8412 182.254C98.8653 185.965 98.9603 189.68 98.8205 193.382C98.5754 199.748 95.4703 204.456 89.5692 206.839C83.6681 209.223 78.1777 208.153 73.4796 203.733C73.0809 203.39 72.8548 202.84 72.5459 202.371C65.1949 210.026 55.3793 209.545 48.9 202.662C46.1384 205.788 42.7158 207.763 38.4975 207.912H38.4785C38.1333 207.939 37.7806 207.951 37.4205 207.95C34.6654 207.956 31.9656 207.182 29.6363 205.718C29.5414 205.658 29.4447 205.596 29.3498 205.533C25.5837 203.043 23.3554 198.814 23.2847 194.317C23.2766 193.827 23.2657 193.337 23.2519 192.848C23.2369 192.27 23.1593 191.694 23.0206 191.131C22.2681 188.07 19.7844 185.661 16.7484 185.084C12.6975 184.308 8.98148 186.143 7.32454 189.729C6.78072 190.902 6.52204 192.187 6.56939 193.479C6.61675 194.77 6.9688 196.033 7.59713 197.164C8.22546 198.296 9.11244 199.264 10.1864 199.991C11.2604 200.719 12.4913 201.185 13.7797 201.351C17.0384 201.796 18.4606 202.981 18.2345 205.041C17.9756 207.253 16.2064 208.196 12.9409 207.847C5.05833 207.004 -0.689188 199.698 0.0667913 191.465C0.757183 183.909 8.10986 177.75 15.7318 178.349C20.2383 178.703 24.0165 180.709 26.5312 183.786C28.2127 185.856 29.303 188.339 29.6881 190.973C29.8125 191.8 29.8754 192.634 29.8762 193.47L29.8607 194.054Z" fill="white"/>
<path id="Vector_21" d="M41.2969 200.542C39.4747 201.526 37.3436 201.781 35.3389 201.255C35.5512 201.255 35.7704 201.284 35.9947 201.313C37.9951 201.586 39.8005 201.288 41.2969 200.542Z" fill="white"/>
<path id="Vector_22" d="M44.68 175.466C43.6786 175.472 42.7138 175.093 41.9867 174.408C41.2596 173.723 40.8264 172.785 40.7775 171.79C40.7154 169.764 42.4293 167.997 44.5143 167.932C45.5202 167.916 46.493 168.29 47.2267 168.975C47.9605 169.659 48.3978 170.601 48.446 171.601C48.5013 173.598 46.7304 175.423 44.68 175.466Z" fill="white"/>
<path id="Vector_23" d="M99.0727 171.597C99.1348 173.603 97.3916 175.409 95.3394 175.466C94.3348 175.48 93.3642 175.104 92.6325 174.419C91.9008 173.734 91.4653 172.793 91.4179 171.795C91.3506 169.774 93.0559 168.004 95.1426 167.932C96.1472 167.918 97.1181 168.292 97.851 168.976C98.5839 169.659 99.0218 170.599 99.0727 171.597Z" fill="white"/>
<path id="Vector_24" d="M56.586 171.79C56.5839 172.275 56.4859 172.755 56.2974 173.202C56.1089 173.649 55.8337 174.055 55.4875 174.396C55.1413 174.738 54.7308 175.008 54.2796 175.192C53.8284 175.375 53.3453 175.468 52.8578 175.466H52.7336C51.7292 175.451 50.772 175.04 50.0723 174.323C49.3727 173.606 48.988 172.642 49.0029 171.643C49.0177 170.644 49.431 169.692 50.1516 168.996C50.8723 168.299 51.8414 167.917 52.8458 167.932H52.9182C53.9038 167.944 54.8441 168.346 55.5324 169.047C56.2208 169.749 56.6009 170.694 56.5894 171.675C56.5877 171.709 56.5877 171.752 56.586 171.79Z" fill="white"/>
<path id="Vector_25" d="M19.0457 167.931C20.0397 167.922 20.9968 168.305 21.7066 168.998C22.4164 169.69 22.8208 170.634 22.8308 171.623V171.743C22.8158 172.742 22.4039 173.694 21.6852 174.391C20.9665 175.088 19.9995 175.474 18.9957 175.464H18.9284C17.947 175.417 17.0226 174.992 16.3501 174.279C15.6777 173.567 15.3098 172.622 15.3241 171.645C15.3385 170.667 15.7339 169.734 16.4269 169.041C17.12 168.348 18.0565 167.95 19.0388 167.931H19.0457Z" fill="white"/>
<path id="Vector_26" d="M7.07764 171.694C7.07764 169.529 8.66381 167.932 10.8127 167.932C11.8032 167.953 12.7461 168.359 13.4391 169.063C14.1322 169.768 14.5203 170.714 14.5203 171.7C14.5203 172.685 14.1322 173.632 13.4391 174.336C12.7461 175.041 11.8032 175.447 10.8127 175.468C8.6828 175.477 7.07764 173.856 7.07764 171.694Z" fill="white"/>
<path id="Vector_27" d="M72.4598 206.488C73.4375 206.456 74.3883 206.81 75.1032 207.474C75.8181 208.139 76.2387 209.058 76.2725 210.031C76.2725 210.086 76.2725 210.139 76.2725 210.202C76.2751 210.699 76.1794 211.19 75.991 211.65C75.8026 212.109 75.5251 212.527 75.1743 212.879C74.8236 213.232 74.4065 213.512 73.9468 213.705C73.4871 213.897 72.9938 213.997 72.4952 214C71.9965 214.002 71.5022 213.907 71.0405 213.72C70.5789 213.532 70.1588 213.256 69.8044 212.907C69.4499 212.558 69.168 212.143 68.9748 211.686C68.7816 211.229 68.6808 210.738 68.6782 210.242C68.6674 209.761 68.752 209.282 68.9271 208.834C69.1022 208.385 69.3644 207.975 69.6987 207.628C70.033 207.28 70.433 207.001 70.8756 206.807C71.3183 206.613 71.795 206.508 72.2786 206.497L72.4598 206.488Z" fill="white"/>
</g>
</g>
</svg>
